<?xml version="1.0" encoding="UTF-8"?>
<!DOCTYPE svg PUBLIC "-//W3C//DTD SVG 1.1//EN" "http://www.w3.org/Graphics/SVG/1.1/DTD/svg11.dtd">
<!-- Creator: CorelDRAW 2021 (64-Bit) -->
<svg xmlns="http://www.w3.org/2000/svg" xml:space="preserve" width="1.76039in" height="1.08714in" version="1.1" style="shape-rendering:geometricPrecision; text-rendering:geometricPrecision; image-rendering:optimizeQuality; fill-rule:evenodd; clip-rule:evenodd"
viewBox="0 0 679.38 419.55"
 xmlns:xlink="http://www.w3.org/1999/xlink"
 xmlns:xodm="http://www.corel.com/coreldraw/odm/2003">
 <defs>
  <style type="text/css">
   <![CDATA[
    .fil2 {fill:none}
    .fil1 {fill:#CCCCCC}
    .fil3 {fill:#FE9900}
    .fil0 {fill:white}
   ]]>
  </style>
    <clipPath id="id0">
     <path d="M-0 0l103.76 0 192.11 332.02 -53.12 87.53 -242.75 -419.55z"/>
    </clipPath>
      <mask id="id1">
  <linearGradient id="id2" gradientUnits="userSpaceOnUse" x1="220.11" y1="428.33" x2="222.68" y2="299.87">
   <stop offset="0" style="stop-opacity:1; stop-color:white"/>
   <stop offset="1" style="stop-opacity:0; stop-color:white"/>
  </linearGradient>
       <rect style="fill:url(#id2)" x="135.61" y="262.82" width="209.52" height="199.91"/>
      </mask>
    <clipPath id="id3">
     <path d="M190.94 0l103.77 0 192.11 332.02 -53.12 87.53 -242.75 -419.55z"/>
    </clipPath>
      <mask id="id4">
  <linearGradient id="id5" gradientUnits="userSpaceOnUse" x1="411.51" y1="415.48" x2="414.08" y2="287.02">
   <stop offset="0" style="stop-opacity:1; stop-color:white"/>
   <stop offset="1" style="stop-opacity:0; stop-color:white"/>
  </linearGradient>
       <rect style="fill:url(#id5)" x="327.01" y="249.98" width="209.52" height="199.91"/>
      </mask>
 </defs>
 <g id="Layer_x0020_1">
  <metadata id="CorelCorpID_0Corel-Layer"/>
  <g id="_2272404613216">
   <polygon class="fil0" points="-0,0 103.76,0 295.87,332.02 242.75,419.55 "/>
   <g style="clip-path:url(#id0)">
    <g>
     <polygon id="_1" class="fil1" style="mask:url(#id1)" points="136.95,461.39 343.78,461.39 343.78,264.16 136.95,264.16 "/>
    </g>
   </g>
   <polygon class="fil2" points="-0,0 103.76,0 295.87,332.02 242.75,419.55 "/>
   <polygon class="fil0" points="190.94,0 294.71,0 486.81,332.02 433.69,419.55 "/>
   <g style="clip-path:url(#id3)">
    <g>
     <polygon id="_1_0" class="fil1" style="mask:url(#id4)" points="328.35,448.55 535.19,448.55 535.19,251.32 328.35,251.32 "/>
    </g>
   </g>
   <polygon class="fil2" points="190.94,0 294.71,0 486.81,332.02 433.69,419.55 "/>
   <polygon class="fil3" points="328.5,0 679.38,0 512.1,289.6 518.66,91.37 "/>
  </g>
 </g>
</svg>
